# xmcd
#
# Track frame offsets:
# 180
# 13101
# 29463
# 46091
# 60448
# 77192
# 92387
# 106005
# 123342
# 140110
# 154937
# 171807
# 190126
# 203331
#
# Disc length: 2815 seconds
#
# Revision: 0
# Processed by: cddbd v1.5.1PL2 Copyright (c) Steve Scherf et al.
# Submitted via: Audion 3.0.2 (http://www.panic.com/audion/)
#
DISCID=aa0afd0e
DTITLE=Celina Gonzalez - Fiesta Guajira
DYEAR=1900
DGENRE=
TTITLE0=Oye mi ley
TTITLE1=Aguacero aguacerito
TTITLE2=El encanto de tu boca
TTITLE3=Mi son es un misterio
TTITLE4=Lagrimas Negras
TTITLE5=Guateque de mi bohio
TTITLE6=Muero de olvido
TTITLE7=Guajira linda
TTITLE8=El reto
TTITLE9=Camina y ven
TTITLE10=El cuarto de Tula
TTITLE11=El guarapo y la melcocha
TTITLE12=No mistifiques tu amor
TTITLE13=Por que
EXTD=
EXTT0=
EXTT1=
EXTT2=
EXTT3=
EXTT4=
EXTT5=
EXTT6=
EXTT7=
EXTT8=
EXTT9=
EXTT10=
EXTT11=
EXTT12=
EXTT13=
PLAYORDER=
